<svg xmlns="http://www.w3.org/2000/svg" width="159.438" height="27" viewBox="0 0 159.438 27">
  <g id="one-liner-white" transform="translate(21719 17438)">
    <rect id="Rectangle_459" data-name="Rectangle 459" width="147" height="27" transform="translate(-21719 -17438)" fill="#fff" opacity="0"/>
    <path id="Path_67" data-name="Path 67" d="M13.381,0A13.381,13.381,0,1,1,0,13.381,13.381,13.381,0,0,1,13.381,0Z" transform="translate(-21719 -17438)" fill="#aa8ed6"/>
    <rect id="Rectangle_461" data-name="Rectangle 461" width="27.837" height="26.909" transform="translate(-21587.4 -17437.91)" fill="#f4900c"/>
    <path id="Path_68" data-name="Path 68" d="M11.638,16.487H1.158A1.18,1.18,0,0,1,.7,16.4a1.1,1.1,0,0,1-.61-.61A1.18,1.18,0,0,1,0,15.33V3.815H2.3V14.19h9.341Z" transform="translate(-21716.379 -17434.311)" fill="#fff"/>
    <path id="Path_69" data-name="Path 69" d="M63.916,19.928a3.554,3.554,0,0,1-.168,1.029,3.077,3.077,0,0,1-.544,1.025,3.031,3.031,0,0,1-.981.791,3.132,3.132,0,0,1-1.472.318H56.608V20.909h4.144a.921.921,0,0,0,.725-.287,1.029,1.029,0,0,0,.256-.711.9.9,0,0,0-.287-.707,1.006,1.006,0,0,0-.694-.256H56.608a.92.92,0,0,0-.725.287,1.029,1.029,0,0,0-.256.711v3.208a.909.909,0,0,0,.287.716,1.028,1.028,0,0,0,.711.256h4.127v2.192H56.608a3.549,3.549,0,0,1-1.03-.168,3.069,3.069,0,0,1-1.025-.544,3.029,3.029,0,0,1-.791-.981,3.13,3.13,0,0,1-.318-1.471V19.928a3.557,3.557,0,0,1,.168-1.029,3.08,3.08,0,0,1,.544-1.025,3.03,3.03,0,0,1,.981-.791,3.131,3.131,0,0,1,1.472-.318h4.144a3.558,3.558,0,0,1,1.03.168,3.081,3.081,0,0,1,1.025.544,3.03,3.03,0,0,1,.791.981,3.128,3.128,0,0,1,.318,1.471" transform="translate(-21756.947 -17444.139)" fill="#fff"/>
    <path id="Path_70" data-name="Path 70" d="M110.976,23.152a3.549,3.549,0,0,1-.168,1.029,3.078,3.078,0,0,1-.544,1.025,3.032,3.032,0,0,1-.981.791,3.131,3.131,0,0,1-1.471.318h-4.145a3.557,3.557,0,0,1-1.03-.168,3.08,3.08,0,0,1-1.025-.544,3.033,3.033,0,0,1-.791-.981,3.13,3.13,0,0,1-.318-1.471,3.594,3.594,0,0,1,.168-1.034,3.061,3.061,0,0,1,.544-1.029,3.029,3.029,0,0,1,.981-.791,3.128,3.128,0,0,1,1.472-.318h4.145v2.191h-4.145a.92.92,0,0,0-.725.287,1.028,1.028,0,0,0-.256.711.872.872,0,0,0,.3.7,1.049,1.049,0,0,0,.7.252h4.127a.927.927,0,0,0,.724-.283,1.014,1.014,0,0,0,.256-.707V19.927a.942.942,0,0,0-.278-.716.979.979,0,0,0-.7-.265h-5.046V16.763h5.046a3.55,3.55,0,0,1,1.029.168,3.079,3.079,0,0,1,1.025.544,3.032,3.032,0,0,1,.791.981,3.131,3.131,0,0,1,.318,1.471Z" transform="translate(-21792.67 -17444.139)" fill="#fff"/>
    <path id="Path_71" data-name="Path 71" d="M162.26,10.366a3.506,3.506,0,0,1-.15,1.065,3.109,3.109,0,0,1-.4.831,2.705,2.705,0,0,1-.575.61,3.345,3.345,0,0,1-.685.411,3.518,3.518,0,0,1-.725.234,3.444,3.444,0,0,1-.694.075H154.89a3.464,3.464,0,0,1-1.06-.15,3.041,3.041,0,0,1-.826-.4,2.79,2.79,0,0,1-.61-.579,3.345,3.345,0,0,1-.411-.685,3.5,3.5,0,0,1-.234-.725,3.424,3.424,0,0,1-.075-.685V7.255a3.189,3.189,0,0,1,.323-1.5,3.045,3.045,0,0,1,1.851-1.551,3.682,3.682,0,0,1,1.043-.168h4.145v2.3h-4.127a.957.957,0,0,0-.7.234.918.918,0,0,0-.239.685v3.093a.969.969,0,0,0,.234.707.917.917,0,0,0,.685.239h4.145a.928.928,0,0,0,.7-.239.955.955,0,0,0,.23-.689V0h2.3Z" transform="translate(-21831.51 -17431.414)" fill="#fff"/>
    <path id="Path_72" data-name="Path 72" d="M214.378,19.928a3.555,3.555,0,0,1-.168,1.029,3.078,3.078,0,0,1-.544,1.025,3.031,3.031,0,0,1-.981.791,3.132,3.132,0,0,1-1.472.318H207.07V20.909h4.144a.921.921,0,0,0,.725-.287,1.029,1.029,0,0,0,.256-.711.9.9,0,0,0-.287-.707,1.006,1.006,0,0,0-.694-.256H207.07a.92.92,0,0,0-.725.287,1.029,1.029,0,0,0-.256.711v3.208a.909.909,0,0,0,.287.716,1.028,1.028,0,0,0,.711.256h4.127v2.192H207.07a3.549,3.549,0,0,1-1.03-.168,3.069,3.069,0,0,1-1.025-.544,3.029,3.029,0,0,1-.791-.981,3.131,3.131,0,0,1-.318-1.471V19.928a3.557,3.557,0,0,1,.168-1.029,3.08,3.08,0,0,1,.544-1.025,3.03,3.03,0,0,1,.981-.791,3.131,3.131,0,0,1,1.472-.318h4.144a3.558,3.558,0,0,1,1.03.168,3.082,3.082,0,0,1,1.025.544,3.03,3.03,0,0,1,.791.981,3.127,3.127,0,0,1,.318,1.471" transform="translate(-21871.16 -17444.139)" fill="#fff"/>
    <path id="Path_73" data-name="Path 73" d="M261.984,19.061h-5.17a.972.972,0,0,0-.707.234.918.918,0,0,0-.239.685v6.336h-2.3V19.98a3.467,3.467,0,0,1,.15-1.061,3.033,3.033,0,0,1,.4-.826,2.778,2.778,0,0,1,.579-.61,3.358,3.358,0,0,1,.685-.411,3.525,3.525,0,0,1,.724-.234,3.442,3.442,0,0,1,.685-.075h5.188Z" transform="translate(-21908.859 -17444.139)" fill="#fff"/>
    <path id="Path_74" data-name="Path 74" d="M305.13,10.366a3.4,3.4,0,0,1-.075.689,3.532,3.532,0,0,1-.234.72,3.344,3.344,0,0,1-.411.685,2.791,2.791,0,0,1-.61.579,3.048,3.048,0,0,1-.826.4,3.464,3.464,0,0,1-1.061.15h-4.145a3.381,3.381,0,0,1-.689-.075,3.531,3.531,0,0,1-.72-.234,3.346,3.346,0,0,1-.685-.411,2.783,2.783,0,0,1-.579-.61,3.017,3.017,0,0,1-.4-.831,3.507,3.507,0,0,1-.15-1.065V0h2.3V10.366a.889.889,0,0,0,.265.676.925.925,0,0,0,.663.252h4.145a.888.888,0,0,0,.676-.256.937.937,0,0,0,.243-.672V7.255a.888.888,0,0,0-.256-.676.924.924,0,0,0-.663-.243h-4.145v-2.3h4.145a3.414,3.414,0,0,1,.689.075,3.547,3.547,0,0,1,.72.234,3.352,3.352,0,0,1,.685.411,2.71,2.71,0,0,1,.574.61,3.126,3.126,0,0,1,.4.826,3.462,3.462,0,0,1,.15,1.06Z" transform="translate(-21939.961 -17431.414)" fill="#fff"/>
    <path id="Path_75" data-name="Path 75" d="M356.409,23.09a3.505,3.505,0,0,1-.15,1.065,3.1,3.1,0,0,1-.4.831,2.7,2.7,0,0,1-.575.61,3.356,3.356,0,0,1-.685.411,3.518,3.518,0,0,1-.725.234,3.462,3.462,0,0,1-.694.075h-4.145A3.682,3.682,0,0,1,348,26.148a3.048,3.048,0,0,1-1.851-1.551,3.207,3.207,0,0,1-.323-1.507V19.98a3.189,3.189,0,0,1,.323-1.5A3.047,3.047,0,0,1,348,16.931a3.69,3.69,0,0,1,1.043-.168h4.145a3.252,3.252,0,0,1,1.5.318,2.988,2.988,0,0,1,1,.8,3.177,3.177,0,0,1,.552,1.047,3.63,3.63,0,0,1,.172,1.052ZM354.111,20a.941.941,0,0,0-.239-.707.955.955,0,0,0-.689-.23h-4.127a.958.958,0,0,0-.7.234.918.918,0,0,0-.239.685V23.09a.933.933,0,0,0,.239.689.946.946,0,0,0,.7.239h4.127a.928.928,0,0,0,.7-.239.955.955,0,0,0,.23-.689Z" transform="translate(-21978.885 -17444.139)" fill="#fff"/>
    <path id="Path_76" data-name="Path 76" d="M405.813,23.152a3.548,3.548,0,0,1-.168,1.029,3.077,3.077,0,0,1-.543,1.025,3.032,3.032,0,0,1-.981.791,3.13,3.13,0,0,1-1.471.318H398.5a3.557,3.557,0,0,1-1.03-.168,3.079,3.079,0,0,1-1.025-.544,3.033,3.033,0,0,1-.791-.981,3.13,3.13,0,0,1-.318-1.471,3.6,3.6,0,0,1,.168-1.034,3.062,3.062,0,0,1,.544-1.029,3.029,3.029,0,0,1,.981-.791,3.128,3.128,0,0,1,1.472-.318h4.145v2.191H398.5a.92.92,0,0,0-.725.287,1.028,1.028,0,0,0-.256.711.872.872,0,0,0,.3.7,1.049,1.049,0,0,0,.7.252h4.127a.927.927,0,0,0,.724-.283,1.014,1.014,0,0,0,.256-.707V19.927a.942.942,0,0,0-.278-.716.979.979,0,0,0-.7-.265H397.6V16.763h5.046a3.551,3.551,0,0,1,1.029.168,3.079,3.079,0,0,1,1.025.544,3.032,3.032,0,0,1,.791.981,3.131,3.131,0,0,1,.318,1.471Z" transform="translate(-22016.473 -17444.139)" fill="#fff"/>
    <path id="Path_77" data-name="Path 77" d="M455.142,19.061h-5.17a.972.972,0,0,0-.707.234.919.919,0,0,0-.239.685v6.336h-2.3V19.98a3.466,3.466,0,0,1,.15-1.061,3.033,3.033,0,0,1,.4-.826,2.776,2.776,0,0,1,.579-.61,3.359,3.359,0,0,1,.685-.411,3.525,3.525,0,0,1,.724-.234,3.442,3.442,0,0,1,.685-.075h5.188Z" transform="translate(-22055.48 -17444.139)" fill="#fff"/>
    <path id="Path_78" data-name="Path 78" d="M497.922,10.366a3.505,3.505,0,0,1-.15,1.065,3.11,3.11,0,0,1-.4.831,2.706,2.706,0,0,1-.575.61,3.344,3.344,0,0,1-.685.411,3.517,3.517,0,0,1-.725.234,3.444,3.444,0,0,1-.694.075h-4.145a3.463,3.463,0,0,1-1.06-.15,3.042,3.042,0,0,1-.826-.4,2.79,2.79,0,0,1-.61-.579,3.345,3.345,0,0,1-.411-.685,3.5,3.5,0,0,1-.234-.725,3.424,3.424,0,0,1-.075-.685V7.255a3.189,3.189,0,0,1,.323-1.5,3.045,3.045,0,0,1,1.851-1.551,3.682,3.682,0,0,1,1.043-.168H494.7v2.3h-4.127a.957.957,0,0,0-.7.234.917.917,0,0,0-.238.685v3.093a.969.969,0,0,0,.234.707.917.917,0,0,0,.685.239H494.7a.928.928,0,0,0,.7-.239.955.955,0,0,0,.23-.689V0h2.3Z" transform="translate(-22086.305 -17431.414)" fill="#fff"/>
    <path id="Path_79" data-name="Path 79" d="M553.077,16.487H542.6a1.18,1.18,0,0,1-.459-.088,1.1,1.1,0,0,1-.61-.61,1.179,1.179,0,0,1-.089-.459V3.815h2.3V14.19h9.341Z" transform="translate(-22127.373 -17434.311)" fill="#fff"/>
    <path id="Path_80" data-name="Path 80" d="M605.354,19.928a3.556,3.556,0,0,1-.168,1.029,3.077,3.077,0,0,1-.544,1.025,3.031,3.031,0,0,1-.981.791,3.132,3.132,0,0,1-1.472.318h-4.144V20.909h4.144a.92.92,0,0,0,.725-.287,1.029,1.029,0,0,0,.256-.711.9.9,0,0,0-.287-.707,1.006,1.006,0,0,0-.694-.256h-4.144a.92.92,0,0,0-.725.287,1.029,1.029,0,0,0-.256.711v3.208a.909.909,0,0,0,.287.716,1.029,1.029,0,0,0,.711.256h4.127v2.192h-4.144a3.549,3.549,0,0,1-1.03-.168,3.069,3.069,0,0,1-1.025-.544,3.028,3.028,0,0,1-.791-.981,3.129,3.129,0,0,1-.318-1.471V19.928a3.556,3.556,0,0,1,.168-1.029,3.08,3.08,0,0,1,.544-1.025,3.03,3.03,0,0,1,.981-.791,3.131,3.131,0,0,1,1.471-.318h4.144a3.558,3.558,0,0,1,1.03.168,3.082,3.082,0,0,1,1.025.544,3.031,3.031,0,0,1,.791.981,3.128,3.128,0,0,1,.318,1.471" transform="translate(-22167.941 -17444.139)" fill="#fff"/>
    <rect id="Rectangle_462" data-name="Rectangle 462" width="153.792" height="13.592" transform="translate(-21716.379 -17431.414)" fill="none"/>
  </g>
</svg>
