<svg width="26" height="26" viewBox="0 0 26 26" fill="none" xmlns="http://www.w3.org/2000/svg">
<path d="M18.25 20.9443H7.74999M18.25 20.9443C19.1782 20.9443 20.0685 21.3131 20.7249 21.9695C21.3812 22.6258 21.75 23.5161 21.75 24.4443H4.24999C4.24999 23.5161 4.61874 22.6258 5.27512 21.9695C5.9315 21.3131 6.82173 20.9443 7.74999 20.9443M18.25 20.9443V17.0068C18.25 16.2823 17.6632 15.6943 16.9375 15.6943H15.9213M7.74999 20.9443V17.0068C7.74999 16.2823 8.33799 15.6943 9.06249 15.6943H10.0798M15.9213 15.6943H10.0798M15.9213 15.6943C15.266 14.5626 14.8744 13.2977 14.7757 11.9937M10.0798 15.6943C10.7347 14.5625 11.1259 13.2976 11.2243 11.9937M14.7757 11.9937C15.9516 11.7223 17.0479 11.1833 17.9817 10.4187M14.7757 11.9937C13.6072 12.2632 12.3928 12.2632 11.2243 11.9937M11.2243 11.9937C10.0488 11.7221 8.9517 11.1832 8.01832 10.4187M5.12499 4.01134C3.97933 4.17817 2.84533 4.38117 1.72299 4.618C1.98316 6.14492 2.74217 7.54252 3.88126 8.59211C5.02035 9.64169 6.47526 10.2841 8.01832 10.4187M5.12499 4.01134V4.31934C5.12499 6.77867 6.25199 8.97434 8.01832 10.4187M5.12499 4.01134V2.24384C7.69866 1.881 10.3283 1.69434 13 1.69434C15.6728 1.69434 18.3025 1.881 20.875 2.24267V4.01134M20.875 4.01134V4.31934C20.875 6.77867 19.748 8.97434 17.9817 10.4187M20.875 4.01134C22.0152 4.17724 23.1497 4.37957 24.277 4.618C24.0169 6.14474 23.258 7.54221 22.1192 8.59177C20.9803 9.64134 19.5245 10.2838 17.9817 10.4187" stroke="#2F3237" stroke-width="1.5" stroke-linecap="round" stroke-linejoin="round"/>
</svg>
