<svg width="24" height="24" viewBox="0 0 24 24" fill="none" xmlns="http://www.w3.org/2000/svg">
<path d="M11.125 11.1943L11.1728 11.171C11.3224 11.0963 11.4903 11.066 11.6566 11.0837C11.8229 11.1014 11.9806 11.1664 12.1111 11.271C12.2416 11.3756 12.3394 11.5154 12.3929 11.6738C12.4464 11.8323 12.4534 12.0027 12.413 12.165L11.587 15.4737C11.5463 15.636 11.5531 15.8067 11.6065 15.9653C11.6599 16.1239 11.7576 16.2639 11.8882 16.3687C12.0187 16.4734 12.1766 16.5386 12.343 16.5563C12.5094 16.5741 12.6775 16.5437 12.8272 16.4688L12.875 16.4443M22.5 12.0693C22.5 13.4482 22.2284 14.8136 21.7007 16.0875C21.1731 17.3614 20.3996 18.5189 19.4246 19.494C18.4496 20.469 17.2921 21.2424 16.0182 21.7701C14.7443 22.2977 13.3789 22.5693 12 22.5693C10.6211 22.5693 9.25574 22.2977 7.98182 21.7701C6.70791 21.2424 5.55039 20.469 4.57538 19.494C3.60036 18.5189 2.82694 17.3614 2.29926 16.0875C1.77159 14.8136 1.5 13.4482 1.5 12.0693C1.5 9.28456 2.60625 6.61385 4.57538 4.64471C6.54451 2.67558 9.21523 1.56934 12 1.56934C14.7848 1.56934 17.4555 2.67558 19.4246 4.64471C21.3938 6.61385 22.5 9.28456 22.5 12.0693ZM12 7.69434H12.0093V7.70367H12V7.69434Z" stroke="#2F3237" stroke-width="1.5" stroke-linecap="round" stroke-linejoin="round"/>
</svg>
