<svg width="18" height="18" viewBox="0 0 18 18" fill="none" xmlns="http://www.w3.org/2000/svg">
<path d="M11.1203 4.14184C11.1203 3.846 11.2753 3.5785 11.4545 3.34267C11.6386 3.101 11.7453 2.81434 11.7453 2.50684C11.7453 1.6435 10.9061 0.944336 9.8703 0.944336C8.83447 0.944336 7.9953 1.64434 7.9953 2.50684C7.9953 2.81434 8.10197 3.101 8.28613 3.34267C8.4653 3.5785 8.6203 3.846 8.6203 4.14184C8.62066 4.21329 8.60666 4.28409 8.57912 4.35003C8.55159 4.41597 8.51108 4.47571 8.46002 4.52569C8.40895 4.57567 8.34835 4.61488 8.28184 4.64098C8.21532 4.66709 8.14423 4.67957 8.0728 4.67767C6.91335 4.64427 5.75589 4.56086 4.60363 4.42767C4.75863 5.77184 4.8478 7.136 4.86613 8.51684C4.86691 8.58925 4.85328 8.66111 4.82605 8.72822C4.79882 8.79532 4.75853 8.85635 4.70751 8.90776C4.65649 8.95916 4.59577 8.99992 4.52887 9.02765C4.46197 9.05539 4.39022 9.06956 4.3178 9.06934C4.02197 9.06934 3.75447 8.91434 3.51863 8.73517C3.27978 8.5486 2.98588 8.44633 2.6828 8.44434C1.81947 8.44434 1.1203 9.2835 1.1203 10.3193C1.1203 11.3552 1.8203 12.1943 2.6828 12.1943C2.9903 12.1943 3.27697 12.0877 3.51863 11.9035C3.75447 11.7243 4.02197 11.5693 4.3178 11.5693C4.57613 11.5693 4.7803 11.786 4.76113 12.0443C4.65748 13.4573 4.47889 14.8637 4.22613 16.2577C5.49113 16.416 6.77447 16.5152 8.0728 16.5527C8.14423 16.5546 8.21532 16.5421 8.28184 16.516C8.34835 16.4899 8.40895 16.4507 8.46002 16.4007C8.51108 16.3507 8.55159 16.291 8.57912 16.225C8.60666 16.1591 8.62066 16.0883 8.6203 16.0168C8.6203 15.721 8.4653 15.4535 8.28613 15.2177C8.09956 14.9788 7.9973 14.6849 7.9953 14.3818C7.9953 13.5193 8.8353 12.8193 9.8703 12.8193C10.9061 12.8193 11.7453 13.5193 11.7453 14.3818C11.7453 14.6893 11.6386 14.976 11.4545 15.2177C11.2753 15.4535 11.1211 15.721 11.1211 16.0168C11.1211 16.2943 11.352 16.516 11.6295 16.5002C13.1457 16.411 14.6556 16.2357 16.152 15.9752C16.3784 14.6737 16.5402 13.3618 16.637 12.0443C16.6413 11.9834 16.6331 11.9223 16.6127 11.8647C16.5923 11.8072 16.5603 11.7545 16.5186 11.7099C16.4769 11.6653 16.4264 11.6298 16.3704 11.6056C16.3143 11.5814 16.2539 11.5691 16.1928 11.5693C15.897 11.5693 15.6295 11.7243 15.3936 11.9035C15.152 12.0877 14.8653 12.1943 14.5578 12.1943C13.6953 12.1943 12.9953 11.3552 12.9953 10.3193C12.9953 9.2835 13.6953 8.44434 14.5578 8.44434C14.8661 8.44434 15.152 8.551 15.3936 8.73517C15.6295 8.91434 15.897 9.06934 16.1936 9.06934C16.2661 9.06956 16.3378 9.05539 16.4047 9.02765C16.4716 8.99992 16.5323 8.95916 16.5833 8.90776C16.6344 8.85635 16.6747 8.79532 16.7019 8.72822C16.7291 8.66111 16.7427 8.58925 16.742 8.51684C16.7219 7.02339 16.619 5.5322 16.4336 4.05017C14.862 4.33517 13.2586 4.5285 11.6286 4.62434C11.563 4.62797 11.4974 4.61815 11.4357 4.59548C11.3741 4.5728 11.3177 4.53775 11.2701 4.49247C11.2224 4.4472 11.1846 4.39267 11.1588 4.33222C11.1331 4.27178 11.12 4.20754 11.1203 4.14184Z" stroke="#820458" stroke-width="1.25" stroke-linecap="round" stroke-linejoin="round"/>
</svg>
