<svg width="24" height="24" viewBox="0 0 24 24" fill="none" xmlns="http://www.w3.org/2000/svg">
<path d="M1.5 13.3818C1.5 12.6573 2.088 12.0693 2.8125 12.0693H5.4375C6.162 12.0693 6.75 12.6573 6.75 13.3818V21.2568C6.75 21.9813 6.162 22.5693 5.4375 22.5693H2.8125C2.4644 22.5693 2.13056 22.4311 1.88442 22.1849C1.63828 21.9388 1.5 21.6049 1.5 21.2568V13.3818ZM9.375 8.13184C9.375 7.40734 9.963 6.81934 10.6875 6.81934H13.3125C14.037 6.81934 14.625 7.40734 14.625 8.13184V21.2568C14.625 21.9813 14.037 22.5693 13.3125 22.5693H10.6875C10.3394 22.5693 10.0056 22.4311 9.75942 22.1849C9.51328 21.9388 9.375 21.6049 9.375 21.2568V8.13184ZM17.25 2.88184C17.25 2.15734 17.838 1.56934 18.5625 1.56934H21.1875C21.912 1.56934 22.5 2.15734 22.5 2.88184V21.2568C22.5 21.9813 21.912 22.5693 21.1875 22.5693H18.5625C18.2144 22.5693 17.8806 22.4311 17.6344 22.1849C17.3883 21.9388 17.25 21.6049 17.25 21.2568V2.88184Z" stroke="#2F3237" stroke-width="1.5" stroke-linecap="round" stroke-linejoin="round"/>
</svg>
