<?xml version="1.0" standalone="no"?>
<!DOCTYPE svg PUBLIC "-//W3C//DTD SVG 20010904//EN"
 "http://www.w3.org/TR/2001/REC-SVG-20010904/DTD/svg10.dtd">
<svg version="1.0" xmlns="http://www.w3.org/2000/svg"
 width="1372.000000pt" height="1372.000000pt" viewBox="0 0 1372.000000 1372.000000"
 preserveAspectRatio="xMidYMid meet">
<metadata>
Created by potrace 1.14, written by Peter Selinger 2001-2017
</metadata>
<g transform="translate(0.000000,1372.000000) scale(0.100000,-0.100000)"
fill="#000000" stroke="none">
<path d="M4229 12336 c-2 -2 -44 -6 -94 -10 -179 -12 -396 -43 -578 -82 -40
-8 -81 -17 -91 -19 -142 -30 -537 -156 -641 -205 -51 -23 -136 -60 -140 -60
-14 0 -276 -133 -370 -188 -60 -36 -119 -70 -130 -76 -38 -22 -157 -98 -165
-106 -3 -3 -25 -19 -50 -35 -72 -48 -175 -127 -178 -136 -2 -5 -8 -9 -13 -9
-5 0 -19 -9 -31 -19 -13 -10 -63 -53 -113 -94 -49 -41 -120 -104 -157 -139
-38 -36 -68 -62 -68 -59 0 3 -4 0 -9 -7 -4 -8 -44 -51 -87 -96 -88 -91 -190
-205 -225 -251 -13 -16 -27 -32 -31 -35 -4 -3 -32 -39 -62 -80 -31 -41 -61
-82 -69 -90 -7 -8 -31 -42 -52 -75 -22 -33 -48 -68 -57 -79 -10 -11 -18 -25
-18 -32 0 -7 -3 -14 -7 -16 -9 -3 -53 -64 -53 -72 0 -2 -22 -40 -48 -83 -27
-43 -70 -118 -96 -168 -27 -49 -52 -94 -57 -99 -5 -6 -9 -18 -9 -28 0 -10 -3
-18 -8 -18 -4 0 -13 -15 -21 -32 -8 -18 -32 -73 -54 -123 -22 -49 -40 -96 -40
-102 0 -7 -4 -13 -8 -13 -7 0 -24 -49 -21 -62 1 -5 -3 -8 -9 -8 -6 0 -9 -6 -6
-14 3 -8 -2 -22 -11 -32 -9 -11 -17 -23 -17 -29 0 -24 -38 -125 -47 -125 -5 0
-7 -4 -4 -9 3 -4 -6 -44 -20 -87 -14 -43 -27 -88 -29 -99 -2 -11 -4 -20 -5
-20 -2 0 -11 -35 -14 -55 -1 -9 -5 -21 -10 -28 -4 -7 -9 -22 -12 -35 -2 -12
-6 -33 -9 -47 -12 -52 -17 -76 -18 -92 -1 -10 -5 -18 -9 -18 -4 0 -7 -3 -6 -7
2 -7 -10 -86 -18 -118 -1 -5 -5 -28 -8 -50 -4 -23 -9 -52 -12 -65 -3 -14 -7
-47 -10 -75 -3 -27 -9 -66 -13 -85 -4 -19 -7 -50 -6 -67 0 -18 -2 -33 -5 -33
-3 0 -6 -24 -7 -53 -7 -168 -8 -195 -13 -192 -7 4 -4 -293 5 -460 8 -154 12
-220 15 -220 2 0 3 -11 14 -110 3 -33 11 -87 16 -120 6 -33 13 -73 16 -90 13
-82 25 -137 40 -197 3 -13 7 -35 8 -49 2 -14 5 -30 8 -35 7 -10 21 -80 19 -89
-1 -3 6 -19 14 -35 9 -17 13 -30 11 -30 -3 0 2 -19 10 -42 9 -24 17 -52 19
-63 1 -11 4 -21 5 -22 1 -2 4 -7 5 -13 1 -5 3 -11 5 -12 1 -2 3 -10 5 -18 2
-8 17 -52 33 -97 17 -45 27 -84 24 -87 -3 -3 0 -6 7 -6 8 0 11 -7 7 -15 -3 -8
-1 -15 3 -15 5 0 17 -26 27 -57 10 -32 21 -60 24 -63 4 -3 19 -36 34 -75 15
-38 37 -85 48 -102 11 -18 16 -33 11 -33 -4 0 -3 -4 2 -8 6 -4 31 -50 57 -102
59 -117 101 -195 116 -213 7 -8 9 -17 5 -20 -3 -4 -2 -7 4 -7 6 0 16 -13 23
-30 7 -16 16 -30 21 -30 5 0 9 -4 9 -10 0 -5 21 -42 47 -82 26 -40 46 -76 45
-80 -1 -5 2 -8 7 -8 4 0 29 -30 54 -67 25 -38 53 -78 64 -90 10 -12 27 -34 38
-49 11 -15 28 -37 37 -48 10 -12 39 -48 65 -81 27 -33 65 -77 85 -97 20 -21
34 -38 32 -38 -7 0 292 -298 349 -348 27 -23 53 -42 58 -42 6 0 7 -4 4 -10 -3
-5 -2 -10 3 -10 7 0 73 -51 132 -103 33 -29 210 -157 295 -214 224 -149 488
-290 745 -398 254 -107 638 -221 872 -260 18 -3 56 -10 83 -15 28 -5 73 -12
100 -15 28 -3 57 -8 65 -10 15 -4 77 -10 260 -25 230 -18 708 0 928 36 28 4
42 3 43 -5 1 -6 2 -494 3 -1083 l1 -1073 4288 -3 4287 -2 0 4330 0 4330 -2675
0 c-2371 0 -2675 2 -2675 15 0 8 -3 15 -7 15 -5 0 -21 26 -38 58 -16 31 -44
80 -62 109 -18 29 -33 57 -33 63 0 5 -4 10 -10 10 -5 0 -10 5 -10 11 0 11 -95
158 -135 210 -11 14 -27 36 -35 48 -29 43 -121 163 -135 178 -8 8 -15 17 -15
21 0 4 -21 31 -48 59 -26 29 -65 74 -87 100 -57 67 -298 307 -379 378 -38 33
-74 65 -80 70 -42 38 -129 107 -170 136 -27 19 -61 44 -74 57 -14 12 -28 22
-33 22 -4 0 -14 6 -21 13 -21 21 -136 97 -147 97 -5 0 -11 4 -13 8 -3 9 -184
122 -195 122 -2 0 -17 9 -32 19 -72 52 -591 292 -591 274 0 -3 -6 -1 -12 4
-10 8 -68 31 -98 38 -3 1 -12 4 -20 8 -50 19 -252 82 -301 93 -11 2 -27 6 -36
8 -156 38 -222 53 -278 61 -11 2 -60 10 -110 19 -49 8 -110 18 -135 20 -25 3
-67 8 -95 11 -27 3 -70 8 -95 11 -53 5 -606 14 -611 10z"/>
</g>
</svg>
