<svg xmlns="http://www.w3.org/2000/svg" xmlns:xlink="http://www.w3.org/1999/xlink" width="355.928" height="146.985" viewBox="0 0 355.928 146.985">
  <defs>
    <clipPath id="clip-path">
      <rect id="Rectangle_414" data-name="Rectangle 414" width="131" height="146.985" fill="#0e141a"/>
    </clipPath>
  </defs>
  <g id="shapes" transform="translate(-11 -117)">
    <g id="Group_6" data-name="Group 6" transform="translate(122 117)">
      <g id="Group_5" data-name="Group 5" transform="translate(0 0)" clip-path="url(#clip-path)">
        <path id="Path_22" data-name="Path 22" d="M130.909,33.439,65.5,0,.092,33.439C-2.848,123.835,65.5,146.985,65.5,146.985s68.347-23.15,65.407-113.547" transform="translate(0 0)" fill="#0e141a"/>
      </g>
    </g>
    <circle id="Ellipse_15" data-name="Ellipse 15" cx="7" cy="7" r="7" transform="translate(88 203)" fill="#aa8ed6" opacity="0.4"/>
    <circle id="Ellipse_17" data-name="Ellipse 17" cx="7" cy="7" r="7" transform="translate(304 168)" fill="#aa8ed6" opacity="0.4"/>
    <circle id="Ellipse_16" data-name="Ellipse 16" cx="6.5" cy="6.5" r="6.5" transform="translate(11 177)" fill="#aa8ed6" opacity="0.4"/>
    <circle id="Ellipse_18" data-name="Ellipse 18" cx="6.5" cy="6.5" r="6.5" transform="translate(329 204)" fill="#aa8ed6" opacity="0.4"/>
    <rect id="Rectangle_415" data-name="Rectangle 415" width="17.757" height="17.757" transform="translate(66.443 164.443) rotate(45)" fill="#aa8ed6" opacity="0.4"/>
    <rect id="Rectangle_418" data-name="Rectangle 418" width="9.757" height="9.757" transform="translate(41.33 207.656) rotate(45)" fill="#aa8ed6" opacity="0.4"/>
    <rect id="Rectangle_416" data-name="Rectangle 416" width="17.757" height="17.757" transform="translate(283.443 196.342) rotate(45)" fill="#aa8ed6" opacity="0.4"/>
    <rect id="Rectangle_417" data-name="Rectangle 417" width="11.757" height="11.757" transform="translate(358.614 178.414) rotate(45)" fill="#aa8ed6" opacity="0.4"/>
  </g>
</svg>
